<?xml version="1.0" ?><!DOCTYPE svg  PUBLIC '-//W3C//DTD SVG 1.1//EN'  'http://www.w3.org/Graphics/SVG/1.1/DTD/svg11.dtd'><svg enable-background="new 0 0 50 50" height="50px" id="Layer_1" version="1.1" viewBox="0 0 50 50" width="50px" xml:space="preserve" xmlns="http://www.w3.org/2000/svg" xmlns:xlink="http://www.w3.org/1999/xlink"><g><circle cx="25" cy="25" fill="#515151" r="20"/></g><g opacity="0.3"><path d="M45,25c0,11-9,20-20,20c-2.6,0-5-0.5-7.3-1.4C12.4,41.6,8.2,37.3,6.3,32C5.5,29.8,5,27.5,5,25C5,14,14,5,25,5   c2.6,0,5,0.5,7.3,1.4c5.3,2.1,9.5,6.3,11.5,11.6C44.5,20.2,45,22.5,45,25z"/></g><g><path d="M25,43c-9.9,0-18-8.1-18-18S15.1,7,25,7s18,8.1,18,18S34.9,43,25,43z" fill="#515151"/></g><g opacity="0.3"><path d="M25,40.5c-8.5,0-15.5-7-15.5-15.5S16.5,9.5,25,9.5s15.5,7,15.5,15.5S33.5,40.5,25,40.5z M25,10.5c-8,0-14.5,6.5-14.5,14.5   S17,39.5,25,39.5S39.5,33,39.5,25S33,10.5,25,10.5z"/></g><g opacity="0.3"><path d="M25,37.5c-6.9,0-12.5-5.6-12.5-12.5S18.1,12.5,25,12.5S37.5,18.1,37.5,25S31.9,37.5,25,37.5z M25,13.5   c-6.3,0-11.5,5.2-11.5,11.5S18.7,36.5,25,36.5S36.5,31.3,36.5,25S31.3,13.5,25,13.5z"/></g><g opacity="0.3"><path d="M25,34.5c-5.2,0-9.5-4.3-9.5-9.5s4.3-9.5,9.5-9.5s9.5,4.3,9.5,9.5S30.2,34.5,25,34.5z M25,16.5c-4.7,0-8.5,3.8-8.5,8.5   s3.8,8.5,8.5,8.5s8.5-3.8,8.5-8.5S29.7,16.5,25,16.5z"/></g><g opacity="0.1"><path d="M43.7,18l-16.5,7L25,22.8l7.3-16.4C37.6,8.4,41.8,12.7,43.7,18z" fill="#FFFFFF"/></g><g opacity="0.1"><path d="M25,27.2l-7.3,16.4C12.4,41.6,8.2,37.3,6.3,32l16.5-7L25,27.2z" fill="#FFFFFF"/></g><g><path d="M25,31c-3.3,0-6-2.7-6-6s2.7-6,6-6s6,2.7,6,6S28.3,31,25,31z" fill="#F45145"/></g><g><circle cx="25" cy="25" fill="#FFFFFF" r="2"/></g></svg>