<?xml version="1.0" ?><svg data-name="Layer 3" id="Layer_3" viewBox="0 0 24 24" xmlns="http://www.w3.org/2000/svg"><path d="M6,19a1,1,0,0,1-1-1V6A1,1,0,0,1,7,6V18A1,1,0,0,1,6,19Z" style="fill:#F8297E"/><path d="M12,18a1,1,0,0,1-1-1V7a1,1,0,0,1,2,0V17A1,1,0,0,1,12,18Z" style="fill:#F8297E"/><path d="M9,21a1,1,0,0,1-1-1V4a1,1,0,0,1,2,0V20A1,1,0,0,1,9,21Z" style="fill:#F8297E"/><path d="M3,17a1,1,0,0,1-1-1V8A1,1,0,0,1,4,8v8A1,1,0,0,1,3,17Z" style="fill:#F8297E"/><path d="M21,16a1,1,0,0,1-1-1V9a1,1,0,0,1,2,0v6A1,1,0,0,1,21,16Z" style="fill:#F8297E"/><path d="M15,16a1,1,0,0,1-1-1V9a1,1,0,0,1,2,0v6A1,1,0,0,1,15,16Z" style="fill:#F8297E"/><path d="M18,18a1,1,0,0,1-1-1V7a1,1,0,0,1,2,0V17A1,1,0,0,1,18,18Z" style="fill:#F8297E"/></svg>